<svg id="Layer_1" xmlns="http://www.w3.org/2000/svg" xmlns:xlink="http://www.w3.org/1999/xlink" viewBox="0 0 156 46"><style>.st0{fill:#b1b3b6}.st0,.st1,.st2{clip-path:url(#SVGID_2_)}.st2{fill:#fff}</style><defs><path id="SVGID_1_" d="M0-.2h156V46H0z"/></defs><clipPath id="SVGID_2_"><use xlink:href="#SVGID_1_" overflow="visible"/></clipPath><path class="st0" d="M150.4 46H5.5c-3 0-5.5-2.5-5.5-5.5V5.2c0-3 2.5-5.5 5.5-5.5h145c3 0 5.5 2.5 5.5 5.5v35.3c0 3-2.5 5.5-5.6 5.5"/><path class="st1" d="M154.9 40.5c0 2.4-2 4.4-4.4 4.4H5.5C3 45 1 43 1 40.5V5.2C1 2.8 3 .8 5.4.8h145c2.5 0 4.4 2 4.4 4.4l.1 35.3z"/><path class="st2" d="M34.8 22.6c0-3.7 3-5.5 3.2-5.6-1.7-2.5-4.5-2.9-5.4-2.9-2.3-.2-4.5 1.4-5.6 1.4-1.2 0-3-1.3-4.9-1.3-2.5 0-4.8 1.5-6.1 3.7-2.6 4.5-.7 11.2 1.8 14.9 1.3 1.8 2.7 3.8 4.6 3.7 1.9-.1 2.6-1.2 4.8-1.2 2.2 0 2.9 1.2 4.9 1.2 2 0 3.3-1.8 4.5-3.6 1.4-2.1 2-4.1 2.1-4.2 0-.1-3.8-1.6-3.9-6.1m-3.7-10.9c1-1.3 1.7-3 1.5-4.7-1.5.1-3.3 1-4.3 2.2-.9 1.1-1.8 2.9-1.5 4.6 1.6.1 3.3-.9 4.3-2.1M62 36.2h-2.6L58 31.7h-5l-1.4 4.5H49l5-15.4h3l5 15.4zm-4.5-6.4l-1.3-4c-.1-.4-.4-1.4-.8-2.9-.2.7-.4 1.6-.7 2.9l-1.3 4h4.1zm17.2.7c0 1.9-.5 3.4-1.5 4.5-.9 1-2 1.5-3.4 1.5-1.5 0-2.5-.5-3.1-1.6v5.8h-2.5v-12c0-1.2 0-2.4-.1-3.7h2.2l.1 1.8c.8-1.3 2.1-2 3.7-2 1.3 0 2.4.5 3.3 1.6.9 1.1 1.3 2.4 1.3 4.1m-2.5.1c0-1.1-.2-2-.7-2.7-.5-.7-1.2-1.1-2.1-1.1-.6 0-1.2.2-1.7.6-.5.4-.8.9-1 1.6-.1.3-.1.6-.1.8v1.8c0 .8.2 1.5.7 2 .5.6 1.1.8 1.9.8.9 0 1.6-.4 2.2-1.1.6-.6.8-1.5.8-2.7m15.3-.1c0 1.9-.5 3.4-1.5 4.5-.9 1-2 1.5-3.4 1.5-1.5 0-2.5-.5-3.1-1.6v5.8H77v-12c0-1.2 0-2.4-.1-3.7H79l.1 1.8c.8-1.3 2.1-2 3.7-2 1.3 0 2.4.5 3.3 1.6.9 1.1 1.4 2.4 1.4 4.1m-2.5.1c0-1.1-.2-2-.7-2.7-.5-.7-1.2-1.1-2.1-1.1-.6 0-1.2.2-1.7.6-.5.4-.8.9-1 1.6-.1.3-.1.6-.1.8v1.8c0 .8.2 1.5.7 2 .5.6 1.1.8 1.9.8.9 0 1.6-.4 2.2-1.1.5-.6.8-1.5.8-2.7m16.7 1.3c0 1.3-.5 2.4-1.4 3.2-1 .9-2.4 1.3-4.2 1.3-1.7 0-3-.3-4-1l.6-2.1c1.1.7 2.3 1 3.6 1 .9 0 1.7-.2 2.2-.6.5-.4.8-1 .8-1.7 0-.6-.2-1.1-.6-1.6-.4-.4-1.1-.8-2.1-1.2-2.7-1-4-2.5-4-4.4 0-1.3.5-2.3 1.4-3.1.9-.8 2.2-1.2 3.8-1.2 1.4 0 2.6.2 3.5.7l-.6 2c-.9-.5-1.8-.7-2.9-.7-.9 0-1.5.2-2 .6-.4.4-.6.8-.6 1.4 0 .6.2 1.1.7 1.5.4.4 1.2.8 2.2 1.2 1.3.5 2.3 1.2 2.9 1.9.4.8.7 1.7.7 2.8m8.2-5h-2.7v5.4c0 1.4.5 2.1 1.4 2.1.4 0 .8 0 1.1-.1l.1 1.9c-.5.2-1.1.3-1.9.3-1 0-1.7-.3-2.3-.9-.5-.6-.8-1.6-.8-3V27h-1.6v-1.8h1.6v-2l2.4-.7v2.8h2.7v1.6zm12.2 3.6c0 1.7-.5 3.1-1.5 4.2s-2.4 1.7-4.1 1.7c-1.6 0-2.9-.5-3.9-1.6s-1.4-2.4-1.4-4.1c0-1.7.5-3.1 1.5-4.2s2.3-1.6 4-1.6c1.6 0 2.9.5 3.9 1.6 1.1 1 1.5 2.4 1.5 4m-2.5.1c0-1-.2-1.9-.7-2.6-.5-.9-1.3-1.3-2.2-1.3-1 0-1.7.4-2.3 1.3-.4.7-.7 1.6-.7 2.7 0 1 .2 1.9.7 2.6.5.9 1.3 1.3 2.2 1.3.9 0 1.7-.4 2.2-1.3.5-.8.8-1.7.8-2.7m10.5-3.3c-.2 0-.5-.1-.8-.1-.9 0-1.5.3-2 1-.4.6-.6 1.3-.6 2.2v5.8h-2.5v-7.6c0-1.3 0-2.4-.1-3.5h2.1l.1 2.1h.1c.3-.7.7-1.3 1.2-1.8.5-.4 1.1-.6 1.8-.6h.6v2.5zm11.1 2.8c0 .4 0 .8-.1 1.1h-7.4c0 1.1.4 1.9 1.1 2.5.6.5 1.4.8 2.4.8 1.1 0 2.1-.2 3-.5l.4 1.7c-1 .5-2.3.7-3.7.7-1.7 0-3.1-.5-4.1-1.5-1-1-1.5-2.4-1.5-4.1 0-1.7.5-3.1 1.4-4.2 1-1.2 2.2-1.8 3.9-1.8 1.6 0 2.8.6 3.6 1.8.6 1 1 2.1 1 3.5m-2.4-.6c0-.7-.1-1.4-.5-1.9-.4-.7-1.1-1-2-1-.8 0-1.5.3-2 1-.4.5-.7 1.2-.7 1.9h5.2zM56.7 11.3c0 1.4-.4 2.4-1.2 3.1-.8.6-1.8 1-3.2 1-.7 0-1.3 0-1.8-.1V7.8c.6-.1 1.3-.2 2.1-.2 1.3 0 2.3.3 3 .9.7.7 1.1 1.6 1.1 2.8m-1.3.1c0-.9-.2-1.6-.7-2-.5-.5-1.1-.7-2-.7-.4 0-.7 0-1 .1v5.6h.8c.9 0 1.6-.3 2.1-.8s.8-1.2.8-2.2m8 1.1c0 .8-.2 1.5-.7 2.1-.5.6-1.2.8-2 .8s-1.4-.3-1.9-.8-.7-1.2-.7-2 .2-1.5.7-2.1c.5-.5 1.1-.8 2-.8.8 0 1.4.3 1.9.8.5.6.7 1.2.7 2m-1.2.1c0-.5-.1-.9-.3-1.3-.3-.4-.6-.7-1.1-.7-.5 0-.9.2-1.1.7-.2.4-.3.8-.3 1.3s.1.9.3 1.3c.3.4.6.7 1.1.7.5 0 .8-.2 1.1-.7.2-.4.3-.8.3-1.3m10.3-2.7l-1.7 5.4h-1.1l-.7-2.4c-.2-.6-.3-1.2-.4-1.8-.1.6-.2 1.2-.4 1.8l-.8 2.4h-1.1l-1.6-5.4h1.2l.6 2.6c.1.6.3 1.2.4 1.7.1-.5.2-1 .4-1.7l.8-2.6h1l.7 2.5c.2.6.3 1.2.4 1.8.1-.6.2-1.2.4-1.8l.7-2.5h1.2zm6.3 5.4h-1.2v-3.1c0-1-.4-1.4-1.1-1.4-.4 0-.7.1-.9.4-.2.3-.3.6-.3.9v3.2h-1.2V9.8h1.1l.1.9c.1-.3.4-.5.6-.7.3-.2.7-.3 1.1-.3.5 0 .9.2 1.3.5.4.4.6 1 .6 1.8v3.3zm2.1-7.9h1.2v7.9h-1.2zm8.4 5.1c0 .8-.2 1.5-.7 2.1-.5.6-1.2.8-2 .8s-1.4-.3-1.9-.8-.7-1.2-.7-2 .2-1.5.7-2.1c.5-.5 1.1-.8 2-.8.8 0 1.4.3 1.9.8.4.6.7 1.2.7 2m-1.3.1c0-.5-.1-.9-.3-1.3-.3-.4-.6-.7-1.1-.7-.5 0-.9.2-1.1.7-.2.4-.3.8-.3 1.3s.1.9.3 1.3c.3.4.6.7 1.1.7.5 0 .8-.2 1.1-.7.2-.4.3-.8.3-1.3m7.1 2.7H94v-.6c-.4.5-.9.8-1.6.8-.5 0-.9-.2-1.2-.5-.3-.3-.4-.7-.4-1.1 0-.7.3-1.2.8-1.5.6-.4 1.3-.5 2.3-.5v-.1c0-.7-.4-1.1-1.1-1.1-.5 0-1 .1-1.4.4l-.2-.8c.5-.3 1.1-.5 1.9-.5 1.4 0 2.1.8 2.1 2.3v2c-.1.4-.1.9-.1 1.2m-1.2-1.9v-.8c-1.3 0-2 .3-2 1.1 0 .3.1.5.2.6.2.1.4.2.6.2.3 0 .5-.1.7-.3.2-.2.4-.4.4-.6.1 0 .1-.1.1-.2m8.1 1.9h-1.1l-.1-.9c-.3.7-.9 1-1.7 1-.7 0-1.2-.3-1.6-.8-.4-.5-.7-1.2-.7-2 0-.9.2-1.6.7-2.1.5-.5 1-.8 1.7-.8s1.2.2 1.5.7v-3h1.2v6.5c.1.5.1 1 .1 1.4m-1.2-2.3v-1.3c-.1-.3-.2-.5-.4-.7-.2-.2-.5-.3-.8-.3-.5 0-.8.2-1.1.5-.3.4-.5.8-.5 1.4 0 .5.1 1 .4 1.3.3.4.6.5 1.1.5.4 0 .7-.1 1-.4.1-.3.3-.6.3-1m11.6-.5c0 .8-.2 1.5-.7 2.1-.5.6-1.2.8-2 .8s-1.4-.3-1.9-.8-.7-1.2-.7-2 .2-1.5.7-2.1c.5-.5 1.1-.8 2-.8.8 0 1.4.3 1.9.8.4.6.7 1.2.7 2m-1.3.1c0-.5-.1-.9-.3-1.3-.3-.4-.6-.7-1.1-.7-.5 0-.9.2-1.1.7-.2.4-.3.8-.3 1.3s.1.9.3 1.3c.3.4.6.7 1.1.7.5 0 .8-.2 1.1-.7.2-.4.3-.8.3-1.3m7.8 2.7h-1.2v-3.1c0-1-.4-1.4-1.1-1.4-.4 0-.7.1-.9.4-.2.3-.3.6-.3.9v3.2h-1.2V9.8h1.1l.1.9c.1-.3.4-.5.6-.7.3-.2.7-.3 1.1-.3.5 0 .9.2 1.3.5.4.4.6 1 .6 1.8v3.3zm8.1-4.5h-1.3v2.6c0 .7.2 1 .7 1 .2 0 .4 0 .5-.1v.9c-.2.1-.6.1-.9.1-.5 0-.9-.1-1.1-.4-.3-.3-.4-.8-.4-1.5v-2.7h-.8v-.8h.8v-1l1.2-.4v1.4h1.3v.9zm6.4 4.5h-1.2v-3.1c0-1-.4-1.5-1.1-1.5-.6 0-.9.3-1.2.8 0 .1-.1.3-.1.4v3.3h-1.2V7.4h1.2v3.3c.4-.6.9-.9 1.6-.9.5 0 .9.2 1.2.5.4.4.6 1 .6 1.8v3.2zm6.7-3v.5h-3.6c0 .5.2.9.5 1.2.3.3.7.4 1.2.4s1-.1 1.5-.3l.2.8c-.5.2-1.1.3-1.8.3-.8 0-1.5-.2-2-.7-.5-.5-.7-1.2-.7-2s.2-1.5.7-2.1c.5-.6 1.1-.9 1.9-.9.8 0 1.4.3 1.8.9.1.7.3 1.2.3 1.9m-1.2-.3c0-.4-.1-.7-.2-.9-.2-.3-.5-.5-1-.5-.4 0-.7.2-1 .5-.2.3-.3.6-.4.9h2.6z"/></svg>