<svg xmlns="http://www.w3.org/2000/svg" viewBox="0 0 88 80"><style>.st0{display:none}.st1{display:inline;opacity:.3}.st2{stroke:#76459a}.st2,.st3,.st4,.st5,.st6{fill:none;stroke-width:3.021}.st7{fill:none}.st3{stroke:#39b45a}.st4{stroke:#1e91cf}.st5{stroke:#ffc328}.st6{stroke:#ef512c}.st7{display:inline;opacity:.3;stroke:#231f20;stroke-width:.755}.st8{fill:#111}.st9{fill:#fff}.st10{fill:none;stroke:#8500d0;stroke-miterlimit:10}.st10,.st11,.st12,.st13,.st14{stroke-width:3}.st11,.st12,.st13,.st14,.st15{fill:none;stroke-miterlimit:10}.st11{stroke:#00c359}.st12{stroke:#0093da}.st13{stroke:#ffc400}.st14{stroke:#ff4e23}.st15{stroke:red;stroke-width:.5}.st15,.st16{display:inline}.st17{fill:none;stroke:red;stroke-width:.5;stroke-miterlimit:10}</style><g id="FPO" class="st0"><g class="st1"><path class="st2" d="M-62.9 54h215.7"/><path class="st3" d="M9 46s17.4.5 21.5-1.2c4.2-1.7 8.6-3.5 14.4-3.5 5.8 0 8.6 1.8 14 4.2 2.9 1.3 23.4.2 23.4.2"/><path class="st4" d="M9.1 38s17.3.7 21.5-1.8 8.6-5.4 14.4-5.4c5.8 0 8.6 2.6 14 6.1 2.9 1.9 21.9 1.2 21.9 1.2"/><path class="st5" d="M9.1 30.7s17.3.8 21.5-3.8 8.6-9.7 14.3-9.7c5.8 0 8.6 3.8 13.9 10.2 2.9 3.4 21.9 3.3 21.9 3.3"/><path class="st6" d="M9.2 22.6s17.3 2.1 21.5-5S39.2 2.7 45 2.7s8.6 3 13.9 12.8c2.9 5.3 20.8 7 20.8 7"/></g><g class="st1"><path class="st3" d="M-62.9 45.9H9"/><path class="st4" d="M-62.9 38.3h74"/><path class="st5" d="M-63 30.6h75.1"/><path class="st6" d="M-62.9 22.5h75"/><path class="st3" d="M153.7 45.9h-72"/><path class="st4" d="M153.7 38.3H79.6"/><path class="st5" d="M153.7 30.6H78.6"/><path class="st6" d="M153.7 22.5H78.6"/></g></g><path class="st8" d="M0 0h88v80H0z" id="Background"/><path class="st9" d="M81.3 64v4.5h.1c.3-.5.7-.9 1.2-1.1.5-.2.9-.3 1.4-.3.6 0 1.2.1 1.6.3.4.2.7.4 1 .7.2.3.4.7.5 1.1.1.4.1.9.1 1.5V76h-2.4v-4.9c0-.7-.1-1.3-.3-1.6-.2-.4-.6-.5-1.2-.5-.7 0-1.1.2-1.4.6-.3.4-.4 1-.4 1.9V76h-2.4V64h2.2zm-7.4 4.9c-.4 0-.7.1-1 .3-.3.2-.5.4-.6.7-.2.3-.3.6-.3.9-.1.3-.1.7-.1 1 0 .3 0 .6.1 1l.3.9c.2.3.4.5.6.6.3.2.6.3.9.3.6 0 1-.2 1.3-.5.3-.3.5-.7.6-1.3H78c-.2 1.2-.6 2-1.3 2.6-.7.6-1.7.9-2.8.9-.7 0-1.2-.1-1.8-.3-.5-.2-1-.5-1.4-.9-.4-.4-.7-.9-.9-1.4-.2-.5-.3-1.1-.3-1.8s.1-1.3.3-1.9c.2-.6.5-1.1.9-1.5.4-.4.8-.7 1.4-1 .5-.2 1.2-.4 1.9-.4.5 0 1 .1 1.5.2s.9.3 1.3.6.7.6.9 1c.2.4.4.9.4 1.5h-2.3c-.3-1-.9-1.5-1.9-1.5m-4.8-1.6v1.6h-1.8v4.3c0 .4.1.7.2.8.1.1.4.2.8.2h.4c.1 0 .2 0 .4-.1V76c-.2 0-.4.1-.7.1h-.7c-.4 0-.7 0-1.1-.1s-.6-.1-.9-.3c-.3-.1-.5-.4-.6-.6-.1-.3-.2-.6-.2-1.1v-5.1h-1.4v-1.6H65v-2.6h2.4v2.6h1.7zm-8.5 5.4v.5c0 .2-.1.4-.2.7-.1.2-.3.4-.6.6-.3.2-.6.2-1.1.2-.2 0-.4 0-.6-.1-.2 0-.3-.1-.5-.2l-.3-.3c-.1-.1-.1-.3-.1-.5s0-.4.1-.6c.1-.1.2-.3.3-.4.1-.1.3-.2.5-.2.2-.1.4-.1.5-.1.2 0 .4-.1.6-.1.2 0 .4-.1.5-.1s.3-.1.5-.1c.2-.1.3-.1.4-.2v.9zM57.5 70c0-.5.2-.8.5-1 .3-.2.6-.3 1.1-.3h.6c.2 0 .3.1.5.2.1.1.3.2.3.4.1.2.1.4.1.6 0 .2-.1.4-.2.6l-.6.3c-.3.1-.6.1-.9.2-.3 0-.7.1-1.1.1-.4.1-.7.1-1.1.2-.4.1-.7.2-.9.4-.3.2-.5.4-.7.8s-.3.7-.3 1.2.1.8.2 1.2c.2.3.4.6.6.8.3.2.6.4.9.5.4.1.7.2 1.2.2s1.1-.1 1.6-.2c.5-.2 1-.4 1.3-.8 0 .1 0 .3.1.4 0 .1.1.3.1.4h2.4c-.1-.2-.2-.4-.2-.8s-.1-.7-.1-1.1v-4.5c0-.5-.1-1-.4-1.3-.2-.3-.5-.6-.9-.7-.4-.2-.8-.3-1.2-.4-.4-.1-.9-.1-1.3-.1-.5 0-1 0-1.4.1-.5.1-.9.3-1.3.5s-.7.5-.9.9c-.2.4-.4.8-.4 1.4h2.4zm-7.4-6c.8 0 1.4.1 1.9.3.5.2 1 .5 1.3.9.3.4.6.8.7 1.2.2.5.2.9.2 1.4 0 .5-.1 1-.2 1.4-.2.5-.4.9-.7 1.2-.3.4-.8.6-1.3.9-.5.2-1.2.3-1.9.3h-2.8V76h-2.6V64h5.4zm-.7 5.7c.3 0 .6 0 .9-.1.3 0 .5-.1.7-.3.2-.1.4-.3.5-.5.1-.2.2-.5.2-.9s-.1-.7-.2-.9c-.1-.2-.3-.4-.5-.5-.2-.1-.5-.2-.7-.3-.3 0-.6-.1-.9-.1h-2.1v3.6h2.1zm-12-5.7v4.5h.1c.3-.5.7-.9 1.2-1.1.5-.2.9-.3 1.4-.3.6 0 1.2.1 1.6.3.4.2.7.4 1 .7.2.3.4.7.5 1.1.1.4.1.9.1 1.5V76h-2.4v-4.9c0-.7-.1-1.3-.3-1.6-.2-.4-.6-.5-1.2-.5-.7 0-1.1.2-1.4.6-.3.4-.4 1-.4 1.9V76H35V64h2.4zm-3.1 3.3v1.6h-1.8v4.3c0 .4.1.7.2.8.1.1.4.2.8.2h.4c.1 0 .2 0 .4-.1V76c-.2 0-.4.1-.7.1h-.7c-.4 0-.7 0-1.1-.1s-.6-.1-.9-.3c-.3-.1-.5-.4-.6-.6-.1-.3-.2-.6-.2-1.1v-5.1h-1.4v-1.6h1.4v-2.6h2.4v2.6h1.8zm-12 0v1.2h.1c.3-.5.7-.9 1.2-1.1.5-.2 1-.3 1.5-.3.6 0 1.2.1 1.6.3.4.2.7.4 1 .7.2.3.4.7.5 1.1.1.4.1.9.1 1.5V76h-2.4v-4.9c0-.7-.1-1.3-.3-1.6-.2-.4-.6-.5-1.2-.5-.7 0-1.1.2-1.4.6-.3.4-.4 1-.4 1.9V76h-2.4v-8.7h2.1zm-7.2 11.3c-.5.3-1.1.5-1.9.5h-.7c-.2 0-.5 0-.7-.1v-2c.2 0 .5 0 .7.1h.7c.3 0 .5-.2.7-.4s.1-.4.1-.7c0-.2 0-.4-.1-.5l-3-8.2h2.5l2 6 1.9-6h2.5l-3.6 9.8c-.3.7-.7 1.2-1.1 1.5M3.7 73.1c.1.3.3.5.6.7.2.2.5.3.8.4.3.1.7.1 1 .1.2 0 .5 0 .8-.1.3 0 .5-.1.8-.2.2-.1.4-.3.6-.5.2-.2.2-.4.2-.7 0-.3-.1-.6-.3-.8-.2-.2-.5-.4-.8-.5-.3-.1-.7-.3-1.1-.4-.4-.1-.9-.2-1.3-.3-.4-.1-.9-.2-1.3-.4s-.9-.4-1.3-.7c-.3-.3-.6-.6-.8-1-.2-.4-.3-.9-.3-1.4 0-.6.1-1.2.4-1.6.3-.5.6-.8 1-1.1.4-.3.9-.5 1.4-.7s1.1-.2 1.6-.2c.6 0 1.2.1 1.8.2s1.1.4 1.5.7c.4.3.8.7 1.1 1.2.3.5.4 1.1.4 1.8H8.1c-.1-.4-.1-.6-.3-.9-.1-.2-.3-.4-.5-.6-.2-.1-.5-.2-.7-.3-.3-.1-.6-.1-.9-.1-.2 0-.4 0-.6.1-.2 0-.4.1-.6.2-.2.1-.3.3-.4.4-.1.2-.2.4-.2.6 0 .2 0 .4.1.6.1.1.3.3.5.4.3.1.6.2 1.1.4.5.1 1.1.3 1.8.5.2 0 .5.1.9.2s.8.3 1.2.6c.4.3.7.6 1 1 .3.4.4 1 .4 1.7 0 .6-.1 1.1-.3 1.5-.2.5-.5.9-1 1.2-.4.3-.9.6-1.6.8s-1.2.4-2 .4c-.7 0-1.3-.1-1.9-.2-.6-.2-1.2-.4-1.7-.8-.4-.3-.8-.8-1.1-1.3-.3-.5-.4-1.2-.4-1.9h2.6c0 .4 0 .7.2 1" id="Text"/><g id="Lines"><path class="st10" d="M0 54h88"/><path class="st11" d="M0 46.1h28c8.1 0 8.1-4.1 16-4.1 7.7 0 8 4.1 15.9 4.1H88"/><path class="st12" d="M0 38h24.1c7.9 0 7.8-8.1 19.8-8.1 11.8 0 12 8.1 19.7 8.1H88"/><path class="st13" d="M0 29.9h20.1c7.5 0 11.9-13.3 23.9-13.3 12 0 16.2 13.3 24.2 13.3h19.9"/><path class="st14" d="M0 22h16.1C28.2 22 28.2 2 43.9 2c16.1 0 16 20 27.9 20H88"/></g><g id="Bend_Notches" class="st0"><path class="st15" d="M28 50.1v17.6m-3.8-25.6v17.6M20.1 34v17.7M16 26.2v17.6M0 18.1v17.7"/><path class="st16 st17" d="M59.8 50.1v17.6m3.8-25.6v17.6M67.7 34v17.7m4.1-25.5v17.6m16-25.7v17.7"/></g></svg>